<svg xmlns="http://www.w3.org/2000/svg" xmlns:xlink="http://www.w3.org/1999/xlink" fill="none" stroke-linecap="square" stroke-miterlimit="10" viewBox="0 0 960 720"><clipPath id="a"><path d="M0 0h960v720H0V0z"/></clipPath><g clip-path="url(#a)"><path fill="none" d="M0 0h960v720H0z"/><path fill="none" d="M122.48819 51.435696h722.7716v492.97635h-722.7716z"/><path stroke="#000" stroke-dasharray="3.0,9.0" stroke-linecap="butt" stroke-linejoin="round" stroke-width="3" d="M122.48819 51.435696h722.7716v492.97635h-722.7716z"/><path fill="#000" d="M326.03027 74.24944l.109375 1.765625q1.78125-2.078125 4.875-2.078125 3.390625 0 4.640625 2.59375 1.84375-2.59375 5.1875-2.59375 2.796875 0 4.15625 1.546875 1.375 1.546875 1.40625 4.5625V91.15569h-3.796875v-11q0-1.609375-.703125-2.359375t-2.328125-.75q-1.296875 0-2.125.703125-.8125.6875-1.140625 1.8125l.015625 11.59375h-3.796875v-11.125q-.078125-2.984375-3.046875-2.984375-2.28125 0-3.234375 1.859375v12.25h-3.796875V74.24944h3.578125zm34.375 16.90625q-.25-.484375-.4375-1.578125-1.8125 1.890625-4.4375 1.890625-2.546875 0-4.15625-1.453125t-1.609375-3.59375q0-2.703125 2-4.140625 2.015625-1.453125 5.75-1.453125h2.328125V79.71819q0-1.3125-.734375-2.09375-.734375-.796875-2.234375-.796875-1.296875 0-2.125.65625-.828125.640625-.828125 1.640625h-3.796875q0-1.390625.921875-2.59375.921875-1.21875 2.5-1.90625 1.59375-.6875 3.546875-.6875 2.96875 0 4.734375 1.5 1.765625 1.484375 1.8125 4.1875v7.625q0 2.28125.640625 3.640625v.265625h-3.875zm-4.171875-2.734375q1.125 0 2.109375-.546875 1-.546875 1.5-1.46875v-3.1875h-2.046875q-2.109375 0-3.171875.734375t-1.0625 2.078125q0 1.09375.71875 1.75.734375.640625 1.953125.640625zM376.46777 77.71819q-.75-.125-1.546875-.125-2.609375 0-3.515625 2v11.5625h-3.796875V74.24944h3.625l.09375 1.890625q1.375-2.203125 3.8125-2.203125.8125 0 1.34375.21875l-.015625 3.5625zm1.4375 4.859375q0-3.9375 1.84375-6.28125 1.859375-2.359375 4.921875-2.359375 2.890625 0 4.546875 2.015625l.171875-1.703125h3.421875v16.390625q0 3.328125-2.078125 5.25-2.0625 1.921875-5.578125 1.921875-1.859375 0-3.640625-.78125-1.765625-.765625-2.6875-2.015625l1.796875-2.28125q1.75 2.078125 4.3125 2.078125 1.890625 0 2.984375-1.03125 1.09375-1.015625 1.09375-3v-1.140625q-1.640625 1.828125-4.375 1.828125-2.96875 0-4.859375-2.359375-1.875-2.359375-1.875-6.53125zm3.78125.328125q0 2.546875 1.03125 4.015625 1.046875 1.453125 2.890625 1.453125 2.296875 0 3.40625-1.96875v-7.4375q-1.078125-1.921875-3.375-1.921875-1.875 0-2.921875 1.484375-1.03125 1.484375-1.03125 4.375zm19.0625 8.25h-3.796875V74.24944h3.796875v16.90625zm-4.03125-21.296875q0-.875.546875-1.453125.5625-.578125 1.59375-.578125t1.59375.578125q.5625.578125.5625 1.453125 0 .859375-.5625 1.4375-.5625.5625-1.59375.5625t-1.59375-.5625q-.546875-.578125-.546875-1.4375zm11.6875 4.390625l.109375 1.953125q1.875-2.265625 4.921875-2.265625 5.28125 0 5.375 6.046875V91.15569h-3.796875V80.202565q0-1.609375-.703125-2.375-.6875-.78125-2.265625-.78125-2.296875 0-3.421875 2.078125v12.03125h-3.796875V74.24944h3.578125zm23.3125 18.859375h-2.984375l8.953125-24.703125h2.984375l-8.953125 24.703125zm14.828125-17.140625l-4.765625-1.375.859375-2.640625 4.71875 1.828125-.234375-5.375h2.796875l-.234375 5.46875 4.640625-1.796875.84375 2.6875-4.84375 1.375 3.125 4.15625-2.265625 1.65625-2.8125-4.5-2.78125 4.359375-2.28125-1.59375 3.234375-4.25zm15.65625-5.828125v4.109375h2.984375v2.8125h-2.984375v9.4375q0 .96875.375 1.40625.390625.421875 1.375.421875.65625 0 1.328125-.15625v2.9375q-1.296875.359375-2.5.359375-4.375 0-4.375-4.828125V77.06194h-2.78125v-2.8125h2.78125v-4.109375h3.796875zm14.734375 7.578125q-.75-.125-1.546875-.125-2.609375 0-3.515625 2v11.5625h-3.796875V74.24944h3.625l.09375 1.890625q1.375-2.203125 3.8125-2.203125.8125 0 1.34375.21875l-.015625 3.5625zm12.03125 13.4375q-.25-.484375-.4375-1.578125-1.8125 1.890625-4.4375 1.890625-2.546875 0-4.15625-1.453125t-1.609375-3.59375q0-2.703125 2-4.140625 2.015625-1.453125 5.75-1.453125h2.328125V79.71819q0-1.3125-.734375-2.09375-.734375-.796875-2.234375-.796875-1.296875 0-2.125.65625-.828125.640625-.828125 1.640625h-3.796875q0-1.390625.921875-2.59375.921875-1.21875 2.5-1.90625 1.59375-.6875 3.546875-.6875 2.96875 0 4.734375 1.5 1.765625 1.484375 1.8125 4.1875v7.625q0 2.28125.640625 3.640625v.265625h-3.875zm-4.171875-2.734375q1.125 0 2.109375-.546875 1-.546875 1.5-1.46875v-3.1875h-2.046875q-2.109375 0-3.171875.734375t-1.0625 2.078125q0 1.09375.71875 1.75.734375.640625 1.953125.640625zm14.90625-14.171875l.109375 1.953125q1.875-2.265625 4.921875-2.265625 5.28125 0 5.375 6.046875V91.15569h-3.796875V80.202565q0-1.609375-.703125-2.375-.6875-.78125-2.265625-.78125-2.296875 0-3.421875 2.078125v12.03125h-3.796875V74.24944h3.578125zm23.75 12.3125q0-1.015625-.84375-1.546875-.828125-.53125-2.765625-.9375t-3.234375-1.03125q-2.84375-1.375-2.84375-3.984375 0-2.1875 1.84375-3.65625t4.6875-1.46875q3.03125 0 4.890625 1.5 1.875 1.5 1.875 3.890625h-3.796875q0-1.09375-.8125-1.8125-.8125-.734375-2.15625-.734375-1.25 0-2.046875.578125-.78125.578125-.78125 1.546875 0 .875.734375 1.359375t2.96875.984375q2.234375.484375 3.5 1.171875 1.28125.671875 1.890625 1.625.625.953125.625 2.3125 0 2.28125-1.890625 3.703125-1.890625 1.40625-4.953125 1.40625-2.078125 0-3.703125-.75t-2.53125-2.0625q-.90625-1.3125-.90625-2.828125h3.6875q.078125 1.34375 1.015625 2.078125.9375.71875 2.484375.71875 1.5 0 2.28125-.5625.78125-.578125.78125-1.5zm21.84375-3.6875q0 3.921875-1.78125 6.265625-1.78125 2.328125-4.78125 2.328125-2.78125 0-4.453125-1.828125v8.015625h-3.796875V74.24944h3.5l.15625 1.71875q1.671875-2.03125 4.546875-2.03125 3.09375 0 4.84375 2.3125 1.765625 2.296875 1.765625 6.390625v.234375zm-3.78125-.328125q0-2.53125-1.015625-4.015625-1-1.484375-2.875-1.484375-2.328125 0-3.34375 1.921875v7.5q1.03125 1.96875 3.375 1.96875 1.8125 0 2.828125-1.453125 1.03125-1.46875 1.03125-4.4375zm17.09375 8.609375q-.25-.484375-.4375-1.578125-1.8125 1.890625-4.4375 1.890625-2.546875 0-4.15625-1.453125t-1.609375-3.59375q0-2.703125 2-4.140625 2.015625-1.453125 5.75-1.453125h2.328125V79.71819q0-1.3125-.734375-2.09375-.734375-.796875-2.234375-.796875-1.296875 0-2.125.65625-.828125.640625-.828125 1.640625h-3.796875q0-1.390625.921875-2.59375.921875-1.21875 2.5-1.90625 1.59375-.6875 3.546875-.6875 2.96875 0 4.734375 1.5 1.765625 1.484375 1.8125 4.1875v7.625q0 2.28125.640625 3.640625v.265625h-3.875zm-4.171875-2.734375q1.125 0 2.109375-.546875 1-.546875 1.5-1.46875v-3.1875h-2.046875q-2.109375 0-3.171875.734375t-1.0625 2.078125q0 1.09375.71875 1.75.734375.640625 1.953125.640625zm20.234375-10.703125q-.75-.125-1.546875-.125-2.609375 0-3.515625 2v11.5625h-3.796875V74.24944h3.625l.09375 1.890625q1.375-2.203125 3.8125-2.203125.8125 0 1.34375.21875l-.015625 3.5625zm9.546875 13.75q-3.609375 0-5.859375-2.265625-2.234375-2.28125-2.234375-6.0625v-.46875q0-2.53125.96875-4.515625.984375-2 2.75-3.109375t3.9375-1.109375q3.453125 0 5.328125 2.203125 1.890625 2.203125 1.890625 6.234375v1.53125h-11.046875q.171875 2.09375 1.390625 3.3125 1.234375 1.21875 3.09375 1.21875 2.609375 0 4.25-2.109375l2.046875 1.953125q-1.015625 1.515625-2.71875 2.359375-1.6875.828125-3.796875.828125zm-.453125-14.484375q-1.5625 0-2.53125 1.09375-.953125 1.09375-1.21875 3.046875h7.234375v-.28125q-.125-1.90625-1.015625-2.875-.890625-.984375-2.46875-.984375zm13.703125-2.734375l.109375 1.953125q1.875-2.265625 4.921875-2.265625 5.28125 0 5.375 6.046875V91.15569h-3.796875V80.202565q0-1.609375-.703125-2.375-.6875-.78125-2.265625-.78125-2.296875 0-3.421875 2.078125v12.03125h-3.796875V74.24944h3.578125zm19.03125-4.109375v4.109375h2.984375v2.8125h-2.984375v9.4375q0 .96875.375 1.40625.390625.421875 1.375.421875.65625 0 1.328125-.15625v2.9375q-1.296875.359375-2.5.359375-4.375 0-4.375-4.828125V77.06194h-2.78125v-2.8125h2.78125v-4.109375h3.796875zm9.125 5.828125l-4.765625-1.375.859375-2.640625 4.71875 1.828125-.234375-5.375h2.796875l-.234375 5.46875 4.640625-1.796875.84375 2.6875-4.84375 1.375 3.125 4.15625-2.265625 1.65625-2.8125-4.5-2.78125 4.359375-2.28125-1.59375 3.234375-4.25zm11.96875 17.140625h-2.984375l8.953125-24.703125h2.984375l-8.953125 24.703125z"/><path fill="none" d="M192.32545 165.31577c0-28.469925 23.079437-51.549362 51.549362-51.549362h480.0194c13.671692 0 26.783508 5.431076 36.450867 15.098465 9.667419 9.667374 15.09845 22.77916 15.09845 36.450897v265.21625c0 28.46991-23.079407 51.549347-51.549316 51.549347h-480.0194c-28.469925 0-51.549362-23.079437-51.549362-51.549347z"/><path stroke="#000" stroke-linecap="butt" stroke-linejoin="round" stroke-width="16" d="M192.32545 165.31577h0c0-28.469925 23.079437-51.549362 51.549362-51.549362h480.0194c13.671692 0 26.783508 5.431076 36.450867 15.098465 9.667419 9.667374 15.09845 22.77916 15.09845 36.450897v265.21625c0 28.46991-23.079407 51.549347-51.549316 51.549347h-480.0194c-28.469925 0-51.549362-23.079437-51.549362-51.549347z"/><path fill="none" d="M259.22833 172.93964h449.29138V422.8924H259.22833z"/><path stroke="#000" stroke-dasharray="16.0,12.0" stroke-linecap="butt" stroke-linejoin="round" stroke-width="4" d="M259.22833 172.93964h449.29138V422.8924H259.22833z"/><path fill="#000" d="M442.84277 204.37839q0 3.921875-1.78125 6.265625-1.78125 2.328125-4.78125 2.328125-2.78125 0-4.453125-1.828125v8.015625h-3.796875v-23.40625h3.5l.15625 1.71875q1.671875-2.03125 4.546875-2.03125 3.09375 0 4.84375 2.3125 1.765625 2.296875 1.765625 6.390625v.234375zm-3.78125-.328125q0-2.53125-1.015625-4.015625-1-1.484375-2.875-1.484375-2.328125 0-3.34375 1.921875v7.5q1.03125 1.96875 3.375 1.96875 1.8125 0 2.828125-1.453125 1.03125-1.46875 1.03125-4.4375zm17.09375 8.609375q-.25-.484375-.4375-1.578125-1.8125 1.890625-4.4375 1.890625-2.546875 0-4.15625-1.453125t-1.609375-3.59375q0-2.703125 2-4.140625 2.015625-1.453125 5.75-1.453125h2.328125v-1.109375q0-1.3125-.734375-2.09375-.734375-.796875-2.234375-.796875-1.296875 0-2.125.65625-.828125.640625-.828125 1.640625h-3.796875q0-1.390625.921875-2.59375.921875-1.21875 2.5-1.90625 1.59375-.6875 3.546875-.6875 2.96875 0 4.734375 1.5 1.765625 1.484375 1.8125 4.1875v7.625q0 2.28125.640625 3.640625v.265625h-3.875zm-4.171875-2.734375q1.125 0 2.109375-.546875 1-.546875 1.5-1.46875v-3.1875h-2.046875q-2.109375 0-3.171875.734375t-1.0625 2.078125q0 1.09375.71875 1.75.734375.640625 1.953125.640625zm10.671875-5.84375q0-3.90625 1.8125-6.265625 1.8125-2.375 4.859375-2.375 2.6875 0 4.34375 1.875v-8.65625h3.796875v24h-3.4375l-.1875-1.75q-1.703125 2.0625-4.546875 2.0625-2.96875 0-4.8125-2.390625-1.828125-2.390625-1.828125-6.5zm3.796875.328125q0 2.578125.984375 4.03125 1 1.4375 2.828125 1.4375 2.328125 0 3.40625-2.078125v-7.21875q-1.046875-2.03125-3.375-2.03125-1.84375 0-2.84375 1.46875-1 1.453125-1 4.390625zm14.265625-.328125q0-3.90625 1.8125-6.265625 1.8125-2.375 4.859375-2.375 2.6875 0 4.34375 1.875v-8.65625h3.796875v24h-3.4375l-.1875-1.75q-1.703125 2.0625-4.546875 2.0625-2.96875 0-4.8125-2.390625-1.828125-2.390625-1.828125-6.5zm3.796875.328125q0 2.578125.984375 4.03125 1 1.4375 2.828125 1.4375 2.328125 0 3.40625-2.078125v-7.21875q-1.046875-2.03125-3.375-2.03125-1.84375 0-2.84375 1.46875-1 1.453125-1 4.390625zm19.015625 8.25h-3.796875v-16.90625h3.796875v16.90625zm-4.03125-21.296875q0-.875.546875-1.453125.5625-.578125 1.59375-.578125t1.59375.578125q.5625.578125.5625 1.453125 0 .859375-.5625 1.4375-.5625.5625-1.59375.5625t-1.59375-.5625q-.546875-.578125-.546875-1.4375zm11.6875 4.390625l.109375 1.953125q1.875-2.265625 4.921875-2.265625 5.28125 0 5.375 6.046875v11.171875h-3.796875v-10.953125q0-1.609375-.703125-2.375-.6875-.78125-2.265625-.78125-2.296875 0-3.421875 2.078125v12.03125h-3.796875v-16.90625h3.578125zm13.609375 8.328125q0-3.9375 1.84375-6.28125 1.859375-2.359375 4.921875-2.359375 2.890625 0 4.546875 2.015625l.171875-1.703125h3.421875v16.390625q0 3.328125-2.078125 5.25-2.0625 1.921875-5.578125 1.921875-1.859375 0-3.640625-.78125-1.765625-.765625-2.6875-2.015625l1.796875-2.28125q1.75 2.078125 4.3125 2.078125 1.890625 0 2.984375-1.03125 1.09375-1.015625 1.09375-3v-1.140625q-1.640625 1.828125-4.375 1.828125-2.96875 0-4.859375-2.359375-1.875-2.359375-1.875-6.53125zm3.78125.328125q0 2.546875 1.03125 4.015625 1.046875 1.453125 2.890625 1.453125 2.296875 0 3.40625-1.96875v-7.4375q-1.078125-1.921875-3.375-1.921875-1.875 0-2.921875 1.484375-1.03125 1.484375-1.03125 4.375z"/><path fill="none" d="M338.11023 233.53806h291.5276v128.75592h-291.5276z"/><path stroke="#000" stroke-linecap="butt" stroke-linejoin="round" stroke-width="4" d="M338.11023 233.53806h291.5276v128.75592h-291.5276z"/><path fill="#434343" d="M447.09277 302.21414q-.578125 3.5625-3.203125 5.6875-2.625 2.109375-6.390625 2.046875-2.171875-.046875-3.8125-1.03125-1.625-.984375-2.546875-2.859375-.921875-1.890625-1.03125-4.265625-.09375-1.78125.4375-4.84375.53125-3.078125 2.03125-5.515625 1.515625-2.4375 3.703125-3.671875 2.203125-1.234375 4.890625-1.1875 3.390625.0625 5.359375 2.140625 1.984375 2.0625 2.109375 5.703125h-3.828125q-.078125-2.4375-1.03125-3.515625-.9375-1.09375-2.796875-1.140625-2.546875-.078125-4.265625 1.828125t-2.3125 5.546875l-.3125 2.078125-.140625 1.59375q-.125 1.609375.21875 3.03125.359375 1.40625 1.25 2.15625.890625.734375 2.265625.78125 4.359375.171875 5.59375-4.53125l3.8125-.03125zm2.90625-1.09375q.265625-2.484375 1.453125-4.515625 1.203125-2.03125 3.078125-3.140625t4.15625-1.046875q2.171875.03125 3.75 1.15625t2.296875 3.078125q.734375 1.953125.515625 4.34375-.25 2.6875-1.46875 4.75-1.203125 2.0625-3.09375 3.171875-1.875 1.09375-4.171875 1.03125-2.15625-.03125-3.734375-1.140625-1.5625-1.125-2.296875-3.0625-.734375-1.953125-.53125-4.296875l.046875-.328125zm3.640625 2.140625q.078125 1.640625.859375 2.640625.796875.984375 2.203125 1.03125 1.90625.046875 3.1875-1.46875 1.296875-1.515625 1.625-4.140625l.09375-1.53125q0-2-.796875-3.140625t-2.3125-1.203125q-2.375-.0625-3.75 2.328125-.828125 1.453125-1.046875 3.34375-.125 1.3125-.0625 2.140625zm19.65625-10.546875l-.375 1.984375q2.171875-2.34375 5.015625-2.28125 2.375.046875 3.515625 1.703125 1.140625 1.640625.84375 4.59375l-1.828125 10.921875h-3.703125l1.84375-10.96875q.078125-.671875.015625-1.25-.203125-1.859375-2.21875-1.90625-2.109375-.03125-3.703125 2.078125l-2.109375 12.046875h-3.703125l2.921875-16.90625 3.484375-.015625zm19.359375-4.09375l-.71875 4.109375h2.890625l-.484375 2.8125h-2.90625l-1.59375 9.46875q-.046875.390625-.015625.703125.09375 1.015625 1.25 1.0625.578125 0 1.3125-.140625l-.25 2.96875q-1.15625.328125-2.328125.328125-1.9375-.03125-2.90625-1.3125-.953125-1.296875-.75-3.421875l1.578125-9.65625h-2.703125l.5-2.8125h2.6875l.71875-4.109375h3.71875zm9.84375 21.328125q-2.203125-.046875-3.828125-1.109375-1.609375-1.0625-2.390625-2.90625-.765625-1.84375-.578125-4.109375l.046875-.640625q.28125-2.578125 1.5-4.625 1.234375-2.0625 3.0625-3.125t3.96875-1.015625q3.171875.0625 4.75 2.359375 1.59375 2.296875 1.203125 5.984375l-.21875 1.625H499.37402q-.140625 2.015625.8125 3.25t2.625 1.265625q2.390625.078125 4.40625-2.078125l1.875 1.96875q-1.0625 1.515625-2.796875 2.359375-1.734375.828125-3.796875.796875zm1.578125-14.5q-2.9375-.09375-4.40625 4.15625l7.015625.015625.0625-.328125q.109375-.71875.015625-1.40625-.171875-1.109375-.875-1.75t-1.8125-.6875zm13.9375-2.734375l-.375 1.984375q2.171875-2.34375 5.015625-2.28125 2.375.046875 3.515625 1.703125 1.140625 1.640625.84375 4.59375l-1.828125 10.921875h-3.703125l1.84375-10.96875q.078125-.671875.015625-1.25-.203125-1.859375-2.21875-1.90625-2.109375-.03125-3.703125 2.078125l-2.109375 12.046875h-3.703125l2.921875-16.90625 3.484375-.015625zm19.359375-4.09375l-.71875 4.109375h2.890625l-.484375 2.8125h-2.90625l-1.59375 9.46875q-.046875.390625-.015625.703125.09375 1.015625 1.25 1.0625.578125 0 1.3125-.140625l-.25 2.96875q-1.15625.328125-2.328125.328125-1.9375-.03125-2.90625-1.3125-.953125-1.296875-.75-3.421875l1.578125-9.65625h-2.703125l.5-2.8125h2.6875l.71875-4.109375h3.71875z"/><path fill="none" d="M367.4777 235.00525v128.59842"/><path stroke="#000" stroke-linecap="butt" stroke-linejoin="round" stroke-width="2" d="M367.4777 247.00525v104.59842"/><path fill="#000" fill-rule="evenodd" stroke="#000" stroke-linecap="butt" stroke-width="2" d="M370.78116 247.00525l-3.3034668-9.076202-3.3034668 9.076202zM364.17422 351.60367l3.3034668 9.076202 3.3034668-9.076202z"/><path fill="none" d="M338.65353 257.17584h291.55905"/><path stroke="#000" stroke-linecap="butt" stroke-linejoin="round" stroke-width="2" d="M350.65353 257.17584h267.55905"/><path fill="#000" fill-rule="evenodd" stroke="#000" stroke-linecap="butt" stroke-width="2" d="M350.65353 253.87239l-9.076172 3.3034515 9.076172 3.3034668zM618.2126 260.4793l9.076233-3.3034668-9.076233-3.3034515z"/><path fill="none" d="M558.6772 233.53806h70.96063v23.653534H558.6772z"/><path fill="#000" d="M577.6772 249.9567l1.890625-7.53125h1.6875l-2.859375 9.859375h-1.375l-2.390625-7.46875-2.328125 7.46875h-1.375l-2.859375-9.859375h1.671875l1.953125 7.375 2.28125-7.375h1.359375l2.34375 7.53125zm7.128845 2.328125h-1.6875v-9.859375h1.6875v9.859375zm-1.828125-12.46875q0-.40625.25-.6875.25-.296875.734375-.296875.5 0 .75.296875.265625.28125.265625.6875t-.265625.6875q-.25.265625-.75.265625-.484375 0-.734375-.265625-.25-.28125-.25-.6875zm4.105591 7.453125q0-2.265625 1.078125-3.640625t2.8125-1.375q1.734375 0 2.75 1.171875v-5.140625h1.6875v14h-1.546875l-.09375-1.0625q-1 1.25-2.8125 1.25-1.703125 0-2.796875-1.40625-1.078125-1.40625-1.078125-3.65625v-.140625zm1.6875.203125q0 1.671875.6875 2.625.703125.9375 1.921875.9375 1.609375 0 2.34375-1.4375v-4.53125q-.765625-1.390625-2.328125-1.390625-1.234375 0-1.9375.953125-.6875.953125-.6875 2.84375zm11.537048-7.4375v2.390625h1.84375v1.3125h-1.84375v6.109375q0 .59375.234375.890625.25.296875.84375.296875.296875 0 .8125-.109375v1.359375q-.671875.1875-1.296875.1875-1.125 0-1.703125-.6875t-.578125-1.9375v-6.109375h-1.796875v-1.3125h1.796875v-2.390625h1.6875zm5.4849243 3.59375q1.125-1.375 2.921875-1.375 3.125 0 3.15625 3.515625v6.515625h-1.6875V245.7692q-.015625-1.078125-.5-1.578125-.46875-.515625-1.484375-.515625-.8125 0-1.4375.4375-.609375.4375-.96875 1.15625v7.015625h-1.671875v-14h1.671875v5.34375z"/><path fill="none" d="M361.9344 328.66666h79.811005v23.653564H361.9344z"/><path fill="#000" d="M373.8875 338.75717q1.125-1.375 2.921875-1.375 3.125 0 3.15625 3.515625v6.515625h-1.6875v-6.515625q-.015625-1.078125-.5-1.578125-.46875-.515625-1.484375-.515625-.8125 0-1.4375.4375-.609375.4375-.96875 1.15625v7.015625h-1.671875v-14h1.671875v5.34375zm12.681763 8.84375q-2 0-3.265625-1.3125-1.25-1.328125-1.25-3.53125v-.3125q0-1.46875.5625-2.609375.5625-1.15625 1.5625-1.796875 1.015625-.65625 2.1875-.65625 1.921875 0 2.984375 1.265625t1.0625 3.625v.6875h-6.671875q.03125 1.46875.84375 2.375.828125.890625 2.078125.890625.890625 0 1.515625-.359375.625-.375 1.078125-.96875l1.03125.796875q-1.234375 1.90625-3.71875 1.90625zm-.203125-8.84375q-1.015625 0-1.71875.75-.6875.734375-.84375 2.078125h4.9375v-.125q-.078125-1.28125-.703125-1.984375-.609375-.71875-1.671875-.71875zm7.836914 8.65625h-1.6875v-9.859375h1.6875v9.859375zm-1.828125-12.46875q0-.40625.25-.6875.25-.296875.734375-.296875.5 0 .75.296875.265625.28125.265625.6875t-.265625.6875q-.25.265625-.75.265625-.484375 0-.734375-.265625-.25-.28125-.25-.6875zm4.1211853 7.453125q0-2.296875 1.0625-3.65625t2.828125-1.359375q1.796875 0 2.8125 1.265625l.078125-1.09375h1.546875v9.625q0 1.90625-1.140625 3-1.125 1.109375-3.046875 1.109375-1.0625 0-2.09375-.453125-1.015625-.453125-1.546875-1.25l.875-1q1.078125 1.328125 2.65625 1.328125 1.21875 0 1.90625-.6875t.6875-1.953125v-.84375q-1 1.171875-2.75 1.171875-1.734375 0-2.8125-1.390625-1.0625-1.40625-1.0625-3.8125zm1.6875.203125q0 1.65625.6875 2.609375t1.921875.953125q1.59375 0 2.328125-1.453125v-4.5q-.765625-1.40625-2.3125-1.40625-1.234375 0-1.9375.953125-.6875.953125-.6875 2.84375zm10.857422-3.84375q1.125-1.375 2.921875-1.375 3.125 0 3.15625 3.515625v6.515625h-1.6875v-6.515625q-.015625-1.078125-.5-1.578125-.46875-.515625-1.484375-.515625-.8125 0-1.4375.4375-.609375.4375-.96875 1.15625v7.015625h-1.671875v-14h1.671875v5.34375zm10.884888-3.59375v2.390625h1.84375v1.3125h-1.84375v6.109375q0 .59375.234375.890625.25.296875.84375.296875.296875 0 .8125-.109375v1.359375q-.671875.1875-1.296875.1875-1.125 0-1.703125-.6875t-.578125-1.9375v-6.109375h-1.796875v-1.3125h1.796875v-2.390625h1.6875z"/><path fill="none" d="M428.44095 0h110.86612v51.43307H428.44095z"/><path fill="#666" d="M453.9964 17.099998l-.59375 3.421875h2.5625l-.328125 1.859375h-2.546875l-1.46875 8.75q-.046875.34375-.015625.625.09375 1.015625 1.109375 1.015625.421875 0 1.140625-.125l-.1875 1.96875q-.84375.234375-1.71875.234375-1.40625-.03125-2.109375-1.03125-.703125-1.015625-.546875-2.71875l1.4375-8.71875H448.2464l.328125-1.859375h2.484375l.59375-3.421875h2.34375zm9.910706 3.15625q1.78125.03125 3.03125.96875 1.265625.9375 1.875 2.578125t.40625 3.59375l-.015625.296875q-.25 2.046875-1.234375 3.71875-.96875 1.65625-2.515625 2.578125t-3.40625.875q-1.75-.03125-3.03125-.96875-1.265625-.9375-1.859375-2.546875-.578125-1.625-.40625-3.5625.203125-2.1875 1.1875-3.921875.984375-1.75 2.546875-2.703125t3.421875-.90625zm-4.78125 7.546875q-.09375.828125 0 1.703125.125 1.546875.90625 2.453125.796875.90625 2.109375.953125 1.171875.03125 2.15625-.578125 1-.625 1.671875-1.875t.875-2.765625q.109375-1.203125.03125-2.015625-.15625-1.578125-.953125-2.484375-.78125-.921875-2.09375-.96875-1.828125-.046875-3.109375 1.4375-1.265625 1.46875-1.5625 3.84375l-.03125.296875zm24.595764-.171875q-.25 2.140625-1.15625 3.859375-.890625 1.71875-2.21875 2.578125-1.328125.84375-2.953125.796875-2.4375-.046875-3.75-1.640625l-1.25 6.796875h-2.359375l3.375-19.5 2.140625-.015625-.265625 1.578125q1.75-1.875 4.1875-1.828125 2.03125.046875 3.15625 1.5 1.140625 1.4375 1.203125 3.984375.015625.828125-.0625 1.609375l-.046875.28125zm-2.3125-.28125l.0625-1.09375q0-1.90625-.71875-2.90625-.71875-1.015625-2.09375-1.0625-2.046875-.046875-3.53125 1.9375l-1.171875 6.75q.78125 1.875 2.84375 1.9375 1.75.03125 2.984375-1.375 1.234375-1.421875 1.625-4.1875zm18.78598-12.4375h-2.40625l-3.390625 21.765625h2.421875l-.3125 1.984375h-4.78125l4.015625-25.71875h4.78125l-.328125 1.96875zm6.3957214 19.6875h-2.359375l2.78125-15.984375-5.046875 1.765625.40625-2.28125 7.03125-2.546875h.421875l-3.234375 19.046875zm9.077576-21.65625h4.78125l-4.015625 25.71875h-4.7968445l.3125-1.984375h2.4374695l3.40625-21.765625h-2.453125l.328125-1.96875z"/><path fill="none" d="M3.8740158 272.19946h110.86614v51.433075H3.8740158z"/><path fill="#666" d="M35.609863 306.79947h-2.34375l3.46875-20h2.359375l-3.484375 20zm9.950623.265625q-2.640625-.0625-4.125-1.9375-1.484375-1.890625-1.25-4.84375l.078125-.546875q.21875-2.09375 1.234375-3.828125 1.03125-1.734375 2.5-2.609375t3.171875-.84375q2.171875.046875 3.40625 1.453125 1.234375 1.390625 1.359375 3.765625.03125.84375-.046875 1.6875l-.15625 1.078125h-9.203125q-.234375 1.921875.625 3.265625.875 1.34375 2.59375 1.390625 2.078125.046875 3.859375-1.875l1.34375 1.140625q-.875 1.28125-2.28125 2-1.390625.71875-3.109375.703125zm1.484375-12.640625q-1.453125-.046875-2.546875.984375-1.078125 1.03125-1.71875 3.0625l6.84375.015625.0625-.21875q.203125-1.640625-.53125-2.71875-.734375-1.09375-2.109375-1.125zm7.3852234 12.375l2.140625-12.21875h-2.171875l.3125-1.859375h2.171875l.234375-1.671875q.328125-2.125 1.640625-3.3125 1.359375-1.25 3.484375-1.234375.65625 0 1.671875.234375l-.28125 1.953125q-.625-.125-1.265625-.15625-1.21875 0-1.984375.765625t-.9375 2.03125l-.203125 1.390625h2.90625l-.328125 1.859375h-2.90625l-2.125 12.21875h-2.359375zm14.189148-17.5l-.59375 3.421875h2.5625l-.328125 1.859375h-2.546875l-1.46875 8.75q-.046875.34375-.015625.625.09375 1.015625 1.109375 1.015625.421875 0 1.140625-.125l-.1875 1.96875q-.84375.234375-1.71875.234375-1.40625-.03125-2.109375-1.03125-.703125-1.015625-.546875-2.71875l1.4375-8.71875h-2.484375l.328125-1.859375h2.484375l.59375-3.421875h2.34375zm16.939407-2.1875h-2.40625l-3.390625 21.765625h2.421875l-.3125 1.984375h-4.78125l4.015625-25.71875h4.78125l-.328125 1.96875zm9.692581 13.328125h2.546875l-.34375 1.953125h-2.546875l-.765625 4.40625h-2.375l.78125-4.40625h-8.390625l.28125-1.546875 10.40625-13h2.578125l-2.171875 12.59375zm-8 0h5.625l1.703125-9.328125-.390625.546875-6.9375 8.78125zm13.780731-15.296875h4.78125l-4.015625 25.71875h-4.796875l.3125-1.984375h2.4375l3.40625-21.765625h-2.453125l.328125-1.96875z"/><path fill="none" d="M407.39633 544.4147h152.97635v51.433105H407.39633z"/><path fill="#666" d="M437.44693 572.04596q-.265625 2.15625-1.1875 3.890625-.921875 1.71875-2.234375 2.5625-1.3125.828125-2.921875.78125-2.546875-.046875-3.78125-1.90625l-.484375 1.640625h-2.171875l3.46875-20h2.359375l-1.421875 7.484375q1.703125-1.875 4.109375-1.828125 2.03125.046875 3.15625 1.5 1.140625 1.4375 1.21875 3.984375 0 .828125-.078125 1.609375l-.03125.28125zm-2.234375-1.375q.03125-1.90625-.65625-2.90625-.671875-1.015625-2.0625-1.0625-2.1875-.046875-3.71875 2.21875l-1.046875 6.125q.78125 2.140625 2.921875 2.203125 1.375.046875 2.40625-.828125 1.046875-.875 1.578125-2.4375t.578125-3.3125zm11.908356-6q1.78125.03125 3.03125.96875 1.265625.9375 1.875 2.578125t.40625 3.59375l-.015625.296875q-.25 2.046875-1.234375 3.71875-.96875 1.65625-2.515625 2.578125t-3.40625.875q-1.75-.03125-3.03125-.96875-1.265625-.9375-1.859375-2.546875-.578125-1.625-.40625-3.5625.203125-2.1875 1.1875-3.921875.984375-1.75 2.546875-2.703125t3.421875-.90625zm-4.78125 7.546875q-.09375.828125 0 1.703125.125 1.546875.90625 2.453125.796875.90625 2.109375.953125 1.171875.03125 2.15625-.578125 1-.625 1.671875-1.875t.875-2.765625q.109375-1.203125.03125-2.015625-.15625-1.578125-.953125-2.484375-.78125-.921875-2.09375-.96875-1.828125-.046875-3.109375 1.4375-1.265625 1.46875-1.5625 3.84375l-.03125.296875zm18.064484-10.703125l-.59375 3.421875h2.5625l-.328125 1.859375h-2.546875l-1.46875 8.75q-.046875.34375-.015625.625.09375 1.015625 1.109375 1.015625.421875 0 1.140625-.125l-.1875 1.96875q-.84375.234375-1.71875.234375-1.40625-.03125-2.109375-1.03125-.703125-1.015625-.546875-2.71875l1.4375-8.71875h-2.484375l.328125-1.859375h2.484375l.59375-3.421875h2.34375zm8.577393 0l-.59375 3.421875h2.5625l-.328125 1.859375h-2.546875l-1.46875 8.75q-.046875.34375-.015625.625.09375 1.015625 1.109375 1.015625.421875 0 1.140625-.125l-.1875 1.96875q-.84375.234375-1.71875.234375-1.40625-.03125-2.109375-1.03125-.703125-1.015625-.546875-2.71875l1.4375-8.71875h-2.484375l.328125-1.859375h2.484375l.59375-3.421875h2.34375zm9.910706 3.15625q1.78125.03125 3.03125.96875 1.265625.9375 1.875 2.578125t.40625 3.59375l-.015625.296875q-.25 2.046875-1.234375 3.71875-.96875 1.65625-2.515625 2.578125t-3.40625.875q-1.75-.03125-3.03125-.96875-1.265625-.9375-1.859375-2.546875-.578125-1.625-.40625-3.5625.203125-2.1875 1.1875-3.921875.984375-1.75 2.546875-2.703125t3.421875-.90625zm-4.78125 7.546875q-.09375.828125 0 1.703125.125 1.546875.90625 2.453125.796875.90625 2.109375.953125 1.171875.03125 2.15625-.578125 1-.625 1.671875-1.875t.875-2.765625q.109375-1.203125.03125-2.015625-.15625-1.578125-.953125-2.484375-.78125-.921875-2.09375-.96875-1.828125-.046875-3.109375 1.4375-1.265625 1.46875-1.5625 3.84375l-.03125.296875zm16.486359-7.296875l-.296875 1.578125q1.765625-1.875 4.28125-1.828125 1.34375.03125 2.265625.625.9375.578125 1.296875 1.640625 1.96875-2.3125 4.671875-2.265625 2.109375.046875 3.109375 1.421875 1 1.359375.734375 3.671875l-1.546875 9.25h-2.34375l1.53125-9.28125q.078125-.671875 0-1.234375-.234375-1.765625-2.3125-1.8125-1.28125-.03125-2.328125.796875t-1.359375 2.171875l-1.59375 9.359375h-2.375l1.5625-9.265625q.171875-1.453125-.4375-2.234375-.59375-.78125-1.875-.796875-2.203125-.0625-3.5 2l-1.78125 10.296875h-2.359375l2.453125-14.078125 2.203125-.015625zm32.730713-5.59375h-2.40625l-3.390625 21.765625h2.421875l-.3125 1.984375h-4.78125l4.015625-25.71875h4.78125l-.328125 1.96875zm3.958252 9.046875h1.546875q1.71875 0 2.890625-.890625 1.1875-.90625 1.359375-2.453125.171875-1.515625-.5625-2.375-.71875-.875-2.125-.90625-1.484375-.015625-2.515625.875t-1.265625 2.40625h-2.328125q.21875-2.34375 2-3.796875 1.78125-1.46875 4.234375-1.4375 2.375.046875 3.734375 1.484375 1.359314 1.4375 1.187439 3.796875-.12493896 1.34375-1.031189 2.453125-.90625 1.09375-2.53125 1.828125 1.296875.515625 1.9375 1.640625t.53125 2.640625q-.203125 2.5625-2.046875 4.125-1.828125 1.5625-4.4375 1.515625-2.4375-.0625-3.890625-1.515625-1.4375-1.453125-1.328125-3.765625l2.359375.015625q-.078125 1.453125.703125 2.359375.78125.890625 2.265625.9375 1.65625.046875 2.765625-.953125t1.265625-2.6875q.140625-1.546875-.703125-2.40625t-2.53125-.921875l-1.796875-.015625.3125-1.953125zm11.515076-11.015625h4.78125l-4.015625 25.71875h-4.796875l.3125-1.984375h2.4375l3.40625-21.765625h-2.453125l.328125-1.96875z"/><path fill="none" d="M845.2598 272.19946h110.86615v51.433075H845.2598z"/><path fill="#666" d="M863.4161 294.86197l-1.09375-.109375q-2.265625 0-3.578125 2.03125l-1.71875 10.015625H854.6661l2.4375-14.078125 2.28125-.015625-.34375 1.640625q1.5-1.96875 3.515625-1.921875.4375 0 1.125.203125l-.265625 2.234375zm2.673645 11.9375h-2.34375l2.453125-14.078125h2.34375l-2.453125 14.078125zm1.9375-19.21875q.609375-.03125 1 .359375.390625.375.390625 1 0 .609375-.390625 1t-1 .421875q-.609375.03125-1-.34375-.390625-.390625-.375-1t.390625-1.015625q.375-.40625.984375-.421875zm2.6068726 12.15625q.3125-2.3125 1.234375-4 .9375-1.703125 2.265625-2.515625 1.34375-.8125 2.921875-.78125 2.453125.0625 3.703125 1.84375l.46875-1.5625h2.15625l-2.34375 13.78125q-.375 2.6875-2.1875 4.3125-1.796875 1.625-4.453125 1.546875-1.4375-.03125-2.75-.6875-1.296875-.640625-2.0625-1.78125l1.34375-1.4375q1.28125 1.890625 3.375 1.9375 1.671875.046875 2.828125-.9375 1.171875-.984375 1.5625-2.8125l.25-1.25q-1.71875 1.71875-4.015625 1.671875-1.3125-.046875-2.28125-.71875t-1.515625-1.9375q-.53125-1.265625-.578125-2.828125-.03125-.765625.078125-1.84375zm2.28125 1.328125q-.046875 1.875.640625 2.890625t2.0625 1.078125q2.109375.046875 3.625-2.078125l1.109375-6.46875q-.78125-1.921875-2.828125-2-1.90625-.046875-3.140625 1.5625-1.21875 1.609375-1.453125 4.359375l-.015625.65625zm16.064575-6.625q1.859375-2.015625 4.265625-1.96875 1.96875.03125 2.921875 1.359375.96875 1.328125.71875 3.734375l-1.53125 9.234375h-2.359375l1.546875-9.265625q.078125-.640625.015625-1.1875-.21875-1.828125-2.15625-1.859375-2.15625-.046875-3.71875 2.265625l-1.734375 10.046875h-2.359375l3.46875-20h2.359375l-1.4375 7.640625zm16.19751-5.140625l-.59375 3.421875h2.5625l-.328125 1.859375h-2.546875l-1.46875 8.75q-.046875.34375-.015625.625.09375 1.015625 1.109375 1.015625.421875 0 1.140625-.125l-.1875 1.96875q-.84375.234375-1.71875.234375-1.40625-.03125-2.109375-1.03125-.703125-1.015625-.546875-2.71875l1.4375-8.71875h-2.484375l.328125-1.859375h2.484375l.59375-3.421875h2.34375zm16.939392-2.1875h-2.40625l-3.390625 21.765625h2.421875l-.3125 1.984375h-4.78125l4.015625-25.71875h4.78125l-.328125 1.96875zm10.895752 19.6875h-12.0625l.28125-1.828125 7-6.796875 1.265625-1.265625q2.203125-2.203125 2.4375-4.0625.171875-1.4375-.5625-2.328125-.71875-.90625-2.046875-.96875-1.703125-.046875-2.859375 1-1.140625 1.046875-1.390625 2.875l-2.328125.015625q.171875-1.75 1.078125-3.09375.90625-1.359375 2.375-2.078125 1.484375-.71875 3.21875-.6875 2.34375.0625 3.734375 1.4375t1.1875 3.5625q-.21875 2.484375-2.875 5.25l-1.1875 1.21875-6.09375 5.78125h9.140625l-.3125 1.96875zm4.5775757-21.65625h4.78125l-4.015625 25.71875h-4.796875l.3125-1.984375h2.4375l3.40625-21.765625h-2.453125l.328125-1.96875z"/><path fill="none" d="M511.60367 677.3228h87.590546"/><path stroke="#000" stroke-linecap="butt" stroke-linejoin="round" stroke-width="4" d="M511.60367 677.3228h87.590546"/><path fill="none" d="M603.6168 664.021h147.43304v23.653564H603.6168z"/><path fill="#434343" d="M624.7887 678.49963q-.4375 2.34375-2.125 3.71875t-4.0625 1.3125q-1.40625-.03125-2.453125-.6875t-1.640625-1.90625q-.578125-1.25-.640625-2.75-.046875-.859375.078125-1.671875l.171875-1.25q.484375-3.40625 2.390625-5.375 1.921875-1.984375 4.65625-1.9375 2.140625.046875 3.390625 1.390625 1.25 1.328125 1.3125 3.703125h-1.9375q-.140625-3.1875-2.5-3.4375l-.34375-.015625q-1.96875-.046875-3.296875 1.46875-1.3125 1.515625-1.6875 4.125l-.234375 1.578125-.0625.921875q-.0625 1.90625.671875 3.046875.75 1.125 2.21875 1.171875 1.59375.046875 2.625-.765625t1.578125-2.609375l1.890625-.03125zm7.97583-6.640625q1.421875.015625 2.421875.765625 1.015625.75 1.5 2.0625t.328125 2.875l-.015625.234375q-.203125 1.640625-.984375 2.96875t-2.015625 2.078125q-1.234375.734375-2.71875.6875-1.40625-.015625-2.421875-.765625t-1.484375-2.03125q-.46875-1.296875-.328125-2.859375.15625-1.75.9375-3.140625.796875-1.390625 2.03125-2.15625 1.25-.765625 2.75-.71875zm-3.828125 6.03125q-.078125.65625 0 1.359375.109375 1.234375.734375 1.96875.625.71875 1.6875.75.9375.03125 1.71875-.453125.796875-.5 1.328125-1.5.546875-1 .703125-2.21875.09375-.953125.03125-1.609375-.125-1.265625-.765625-1.984375-.625-.734375-1.671875-.78125-1.46875-.03125-2.484375 1.15625-1.015625 1.171875-1.265625 3.078125l-.015625.234375zm13.215881-5.84375l-.265625 1.421875q1.515625-1.65625 3.453125-1.609375 1.59375.03125 2.34375 1.09375.765625 1.0625.578125 2.984375l-1.234375 7.390625h-1.890625l1.25-7.421875q.0625-.5 0-.9375-.171875-1.46875-1.71875-1.5-1.6875-.03125-2.96875 1.8125l-1.40625 8.046875h-1.875l1.953125-11.265625 1.78125-.015625zm12.75238-2.71875l-.46875 2.734375h2.046875l-.265625 1.484375h-2.03125l-1.1875 7.015625q-.03125.265625 0 .5.0625.8125.875.8125.34375 0 .921875-.109375l-.140625 1.578125q-.6875.1875-1.375.1875-1.125-.03125-1.6875-.828125-.5625-.8125-.4375-2.171875l1.140625-6.984375h-1.984375l.25-1.484375h2l.46875-2.734375h1.875zm6.769165 14.203125q-2.109375-.03125-3.296875-1.546875t-1-3.859375l.046875-.453125q.1875-1.671875 1-3.0625t1.984375-2.078125q1.1875-.703125 2.546875-.671875 1.75.03125 2.734375 1.15625.984375 1.109375 1.078125 3.015625.03125.671875-.03125 1.34375l-.125.875h-7.359375q-.1875 1.53125.5 2.609375.703125 1.0625 2.078125 1.109375 1.65625.03125 3.078125-1.5l1.078125.90625q-.703125 1.03125-1.828125 1.609375-1.109375.578125-2.484375.546875zm1.1875-10.109375q-1.15625-.03125-2.03125.796875-.875.8125-1.375 2.4375l5.46875.015625.046875-.171875q.171875-1.3125-.421875-2.171875-.59375-.875-1.6875-.90625zm8.731689-1.375l-.265625 1.421875q1.515625-1.65625 3.453125-1.609375 1.59375.03125 2.34375 1.09375.765625 1.0625.578125 2.984375l-1.234375 7.390625h-1.890625l1.25-7.421875q.0625-.5 0-.9375-.171875-1.46875-1.71875-1.5-1.6875-.03125-2.96875 1.8125l-1.40625 8.046875h-1.875l1.953125-11.265625 1.78125-.015625zm12.75238-2.71875l-.46875 2.734375h2.046875l-.265625 1.484375h-2.03125l-1.1875 7.015625q-.03125.265625 0 .5.0625.8125.875.8125.34375 0 .921875-.109375l-.140625 1.578125q-.6875.1875-1.375.1875-1.125-.03125-1.6875-.828125-.5625-.8125-.4375-2.171875l1.140625-6.984375h-1.984375l.25-1.484375h2l.46875-2.734375h1.875zM697.33203 683.5309q-2.296875 0-3.734375-1.5t-1.4375-4.03125v-.34375q0-1.6875.640625-3t1.78125-2.046875q1.15625-.75 2.5-.75 2.203125 0 3.421875 1.453125 1.21875 1.4375 1.21875 4.125v.8125h-7.640625q.046875 1.65625.96875 2.6875.9375 1.03125 2.375 1.03125 1.03125 0 1.734375-.421875t1.234375-1.109375l1.1875.921875q-1.421875 2.171875-4.25 2.171875zm-.25-10.09375q-1.15625 0-1.953125.84375t-.984375 2.375h5.65625v-.140625q-.09375-1.46875-.796875-2.265625-.703125-.8125-1.921875-.8125zm6.3930664 4.15625q0-2.59375 1.234375-4.15625 1.234375-1.578125 3.21875-1.578125t3.140625 1.34375v-5.875h1.921875v16h-1.765625l-.09375-1.203125q-1.15625 1.40625-3.21875 1.40625-1.96875 0-3.203125-1.59375-1.234375-1.609375-1.234375-4.1875v-.15625zm1.9375.21875q0 1.921875.78125 3.015625.796875 1.078125 2.1875 1.078125 1.84375 0 2.6875-1.65625v-5.171875q-.875-1.59375-2.65625-1.59375-1.421875 0-2.21875 1.09375-.78125 1.09375-.78125 3.234375zm10.106445-.21875q0-2.625 1.21875-4.171875 1.21875-1.5625 3.234375-1.5625 2.0625 0 3.21875 1.453125l.09375-1.25h1.75v11q0 2.1875-1.296875 3.4375-1.296875 1.265625-3.484375 1.265625-1.21875 0-2.390625-.53125-1.15625-.515625-1.765625-1.421875l1-1.15625q1.234375 1.53125 3.03125 1.53125 1.40625 0 2.1875-.796875.78125-.78125.78125-2.21875v-.96875q-1.15625 1.328125-3.15625 1.328125-1.96875 0-3.203125-1.59375-1.21875-1.59375-1.21875-4.34375zm1.9375.21875q0 1.90625.78125 3t2.1875 1.09375q1.828125 0 2.671875-1.65625v-5.15625q-.875-1.609375-2.65625-1.609375-1.40625 0-2.203125 1.09375-.78125 1.09375-.78125 3.234375zm15.168945 5.71875q-2.296875 0-3.734375-1.5t-1.4375-4.03125v-.34375q0-1.6875.640625-3t1.78125-2.046875q1.15625-.75 2.5-.75 2.203125 0 3.421875 1.453125 1.21875 1.4375 1.21875 4.125v.8125h-7.640625q.046875 1.65625.96875 2.6875.9375 1.03125 2.375 1.03125 1.03125 0 1.734375-.421875t1.234375-1.109375l1.1875.921875q-1.421875 2.171875-4.25 2.171875zm-.25-10.09375q-1.15625 0-1.953125.84375t-.984375 2.375h5.65625v-.140625q-.09375-1.46875-.796875-2.265625-.703125-.8125-1.921875-.8125z"/><path fill="none" d="M511.60367 626.9764h87.590546"/><path stroke="#000" stroke-dasharray="16.0,12.0" stroke-linecap="butt" stroke-linejoin="round" stroke-width="4" d="M511.60367 626.9764h87.590546"/><path fill="none" d="M603.6168 613.67456h152.97638v23.653503H603.6168z"/><path fill="#000" d="M623.5856 627.4657q0 2.578125-1.171875 4.15625-1.171875 1.5625-3.1875 1.5625-2.046875 0-3.21875-1.296875v5.421875h-1.9375V621.7157h1.765625l.09375 1.25q1.171875-1.453125 3.265625-1.453125 2.03125 0 3.203125 1.53125 1.1875 1.515625 1.1875 4.25v.171875zm-1.921875-.21875q0-1.90625-.8125-3-.8125-1.109375-2.21875-1.109375-1.75 0-2.625 1.546875v5.390625q.859375 1.546875 2.640625 1.546875 1.390625 0 2.203125-1.09375.8125-1.109375.8125-3.28125zm11.34082 5.734375q-.171875-.328125-.28125-1.1875-1.34375 1.390625-3.203125 1.390625-1.671875 0-2.734375-.9375t-1.0625-2.390625q0-1.765625 1.328125-2.734375 1.34375-.96875 3.765625-.96875h1.875v-.890625q0-1.015625-.609375-1.609375-.59375-.59375-1.765625-.59375-1.03125 0-1.734375.515625t-.703125 1.265625h-1.9375q0-.84375.59375-1.625.609375-.796875 1.625-1.25 1.03125-.453125 2.265625-.453125 1.953125 0 3.046875.96875 1.109375.96875 1.15625 2.671875v5.1875q0 1.5625.390625 2.46875v.171875h-2.015625zm-3.203125-1.46875q.90625 0 1.71875-.46875t1.171875-1.21875v-2.3125h-1.5q-3.546875 0-3.546875 2.078125 0 .90625.59375 1.421875.609375.5 1.5625.5zm7.3669434-4.265625q0-2.59375 1.234375-4.15625 1.234375-1.578125 3.21875-1.578125t3.140625 1.34375v-5.875h1.921875v16h-1.765625l-.09375-1.203125q-1.15625 1.40625-3.21875 1.40625-1.96875 0-3.203125-1.59375-1.234375-1.609375-1.234375-4.1875v-.15625zm1.9375.21875q0 1.921875.78125 3.015625.796875 1.078125 2.1875 1.078125 1.84375 0 2.6875-1.65625v-5.171875q-.875-1.59375-2.65625-1.59375-1.421875 0-2.21875 1.09375-.78125 1.09375-.78125 3.234375zm10.09082-.21875q0-2.59375 1.234375-4.15625 1.234375-1.578125 3.21875-1.578125t3.140625 1.34375v-5.875h1.921875v16h-1.765625l-.09375-1.203125q-1.15625 1.40625-3.21875 1.40625-1.96875 0-3.203125-1.59375-1.234375-1.609375-1.234375-4.1875v-.15625zm1.9375.21875q0 1.921875.78125 3.015625.796875 1.078125 2.1875 1.078125 1.84375 0 2.6875-1.65625v-5.171875q-.875-1.59375-2.65625-1.59375-1.421875 0-2.21875 1.09375-.78125 1.09375-.78125 3.234375zm12.65332 5.515625h-1.921875V621.7157h1.921875v11.265625zm-2.078125-14.25q0-.46875.28125-.796875.296875-.328125.859375-.328125t.84375.328125q.296875.328125.296875.796875t-.296875.78125q-.28125.3125-.84375.3125t-.859375-.3125q-.28125-.3125-.28125-.78125zm6.9883423 2.984375l.0625 1.40625q1.296875-1.609375 3.375-1.609375 3.578125 0 3.609375 4.015625v7.453125h-1.9375V625.5282q0-1.21875-.546875-1.796875-.546875-.59375-1.703125-.59375-.9375 0-1.65625.5-.703125.5-1.09375 1.3125v8.03125h-1.9375V621.7157h1.828125zm9.486694 5.53125q0-2.625 1.21875-4.171875 1.21875-1.5625 3.234375-1.5625 2.0625 0 3.21875 1.453125l.09375-1.25h1.75v11q0 2.1875-1.296875 3.4375-1.296875 1.265625-3.484375 1.265625-1.21875 0-2.390625-.53125-1.15625-.515625-1.765625-1.421875l1-1.15625q1.234375 1.53125 3.03125 1.53125 1.40625 0 2.1875-.796875.78125-.78125.78125-2.21875v-.96875q-1.15625 1.328125-3.15625 1.328125-1.96875 0-3.203125-1.59375-1.21875-1.59375-1.21875-4.34375zm1.9375.21875q0 1.90625.78125 3t2.1875 1.09375q1.828125 0 2.671875-1.65625v-5.15625q-.875-1.609375-2.65625-1.609375-1.40625 0-2.203125 1.09375-.78125 1.09375-.78125 3.234375zm20.448914 5.71875q-2.296875 0-3.734375-1.5t-1.4375-4.03125v-.34375q0-1.6875.640625-3t1.78125-2.046875q1.15625-.75 2.5-.75 2.203125 0 3.421875 1.453125 1.21875 1.4375 1.21875 4.125v.8125h-7.640625q.046875 1.65625.96875 2.6875.9375 1.03125 2.375 1.03125 1.03125 0 1.734375-.421875t1.234375-1.109375l1.1875.921875q-1.421875 2.171875-4.25 2.171875zm-.25-10.09375q-1.15625 0-1.953125.84375t-.984375 2.375h5.65625v-.140625q-.09375-1.46875-.796875-2.265625-.703125-.8125-1.921875-.8125zm6.3931274 4.15625q0-2.59375 1.234375-4.15625 1.234375-1.578125 3.21875-1.578125t3.140625 1.34375v-5.875h1.921875v16h-1.765625l-.09375-1.203125q-1.15625 1.40625-3.21875 1.40625-1.96875 0-3.203125-1.59375-1.234375-1.609375-1.234375-4.1875v-.15625zm1.9375.21875q0 1.921875.78125 3.015625.796875 1.078125 2.1875 1.078125 1.84375 0 2.6875-1.65625v-5.171875q-.875-1.59375-2.65625-1.59375-1.421875 0-2.21875 1.09375-.78125 1.09375-.78125 3.234375zm10.106445-.21875q0-2.625 1.21875-4.171875 1.21875-1.5625 3.234375-1.5625 2.0625 0 3.21875 1.453125l.09375-1.25h1.75v11q0 2.1875-1.296875 3.4375-1.296875 1.265625-3.484375 1.265625-1.21875 0-2.390625-.53125-1.15625-.515625-1.765625-1.421875l1-1.15625q1.234375 1.53125 3.03125 1.53125 1.40625 0 2.1875-.796875.78125-.78125.78125-2.21875v-.96875q-1.15625 1.328125-3.15625 1.328125-1.96875 0-3.203125-1.59375-1.21875-1.59375-1.21875-4.34375zm1.9375.21875q0 1.90625.78125 3t2.1875 1.09375q1.828125 0 2.671875-1.65625v-5.15625q-.875-1.609375-2.65625-1.609375-1.40625 0-2.203125 1.09375-.78125 1.09375-.78125 3.234375zm15.168945 5.71875q-2.296875 0-3.734375-1.5t-1.4375-4.03125v-.34375q0-1.6875.640625-3t1.78125-2.046875q1.15625-.75 2.5-.75 2.203125 0 3.421875 1.453125 1.21875 1.4375 1.21875 4.125v.8125h-7.640625q.046875 1.65625.96875 2.6875.9375 1.03125 2.375 1.03125 1.03125 0 1.734375-.421875t1.234375-1.109375l1.1875.921875q-1.421875 2.171875-4.25 2.171875zm-.25-10.09375q-1.15625 0-1.953125.84375t-.984375 2.375h5.65625v-.140625q-.09375-1.46875-.796875-2.265625-.703125-.8125-1.921875-.8125z"/><path fill="none" d="M203.40683 677.3228h87.590546"/><path stroke="#000" stroke-linecap="butt" stroke-linejoin="round" stroke-width="16" d="M203.40683 677.3228h87.590546"/><path fill="none" d="M295.41995 664.021h152.97638v23.653564H295.41995z"/><path fill="#000" d="M315.41995 677.81213q0 2.59375-1.1875 4.15625t-3.1875 1.5625q-2.140625 0-3.296875-1.5l-.09375 1.296875h-1.78125v-16h1.9375v5.96875q1.15625-1.4375 3.203125-1.4375 2.0625 0 3.234375 1.546875t1.171875 4.25v.15625zm-1.921875-.21875q0-1.96875-.765625-3.03125-.765625-1.078125-2.1875-1.078125-1.90625 0-2.734375 1.765625v4.875q.875 1.78125 2.75 1.78125 1.390625 0 2.15625-1.078125.78125-1.078125.78125-3.234375zm3.8408203 0q0-1.65625.640625-2.984375.65625-1.328125 1.8125-2.03125 1.171875-.71875 2.65625-.71875 2.296875 0 3.71875 1.59375 1.421875 1.578125 1.421875 4.234375v.125q0 1.65625-.625 2.96875-.625 1.296875-1.796875 2.03125-1.171875.71875-2.703125.71875-2.28125 0-3.703125-1.59375t-1.421875-4.21875v-.125zm1.9375.21875q0 1.875.859375 3.015625.875 1.140625 2.328125 1.140625 1.46875 0 2.328125-1.15625.875-1.15625.875-3.21875 0-1.859375-.890625-3-.875-1.15625-2.328125-1.15625-1.421875 0-2.296875 1.140625-.875 1.125-.875 3.234375zm16.179321-4.03125q-.4375-.0625-.953125-.0625-1.890625 0-2.5625 1.609375v8h-1.9375V672.06213h1.875l.03125 1.296875q.953125-1.5 2.6875-1.5.5625 0 .859375.140625v1.78125zm1.0971985 3.8125q0-2.59375 1.234375-4.15625 1.234375-1.578125 3.21875-1.578125t3.140625 1.34375v-5.875h1.921875v16h-1.765625l-.09375-1.203125q-1.15625 1.40625-3.21875 1.40625-1.96875 0-3.203125-1.59375-1.234375-1.609375-1.234375-4.1875v-.15625zm1.9375.21875q0 1.921875.78125 3.015625.796875 1.078125 2.1875 1.078125 1.84375 0 2.6875-1.65625v-5.171875q-.875-1.59375-2.65625-1.59375-1.421875 0-2.21875 1.09375-.78125 1.09375-.78125 3.234375zm15.24707 5.71875q-2.296875 0-3.734375-1.5t-1.4375-4.03125v-.34375q0-1.6875.640625-3t1.78125-2.046875q1.15625-.75 2.5-.75 2.203125 0 3.421875 1.453125 1.21875 1.4375 1.21875 4.125v.8125h-7.640625q.046875 1.65625.96875 2.6875.9375 1.03125 2.375 1.03125 1.03125 0 1.734375-.421875t1.234375-1.109375l1.1875.921875q-1.421875 2.171875-4.25 2.171875zm-.25-10.09375q-1.15625 0-1.953125.84375t-.984375 2.375h5.65625v-.140625q-.09375-1.46875-.796875-2.265625-.703125-.8125-1.921875-.8125zm12.314972.34375q-.4375-.0625-.953125-.0625-1.890625 0-2.5625 1.609375v8h-1.9375V672.06213h1.875l.03125 1.296875q.953125-1.5 2.6875-1.5.5625 0 .859375.140625v1.78125zm11.731323 9.75q-2.296875 0-3.734375-1.5t-1.4375-4.03125v-.34375q0-1.6875.640625-3t1.78125-2.046875q1.15625-.75 2.5-.75 2.203125 0 3.421875 1.453125 1.21875 1.4375 1.21875 4.125v.8125h-7.640625q.046875 1.65625.96875 2.6875.9375 1.03125 2.375 1.03125 1.03125 0 1.734375-.421875t1.234375-1.109375l1.1875.921875q-1.421875 2.171875-4.25 2.171875zm-.25-10.09375q-1.15625 0-1.953125.84375t-.984375 2.375h5.65625v-.140625q-.09375-1.46875-.796875-2.265625-.703125-.8125-1.921875-.8125zm6.393097 4.15625q0-2.59375 1.234375-4.15625 1.234375-1.578125 3.21875-1.578125t3.140625 1.34375v-5.875h1.921875v16h-1.765625l-.09375-1.203125q-1.15625 1.40625-3.21875 1.40625-1.96875 0-3.203125-1.59375-1.234375-1.609375-1.234375-4.1875v-.15625zm1.9375.21875q0 1.921875.78125 3.015625.796875 1.078125 2.1875 1.078125 1.84375 0 2.6875-1.65625v-5.171875q-.875-1.59375-2.65625-1.59375-1.421875 0-2.21875 1.09375-.78125 1.09375-.78125 3.234375zm10.106445-.21875q0-2.625 1.21875-4.171875 1.21875-1.5625 3.234375-1.5625 2.0625 0 3.21875 1.453125l.09375-1.25h1.75v11q0 2.1875-1.296875 3.4375-1.296875 1.265625-3.484375 1.265625-1.21875 0-2.390625-.53125-1.15625-.515625-1.765625-1.421875l1-1.15625q1.234375 1.53125 3.03125 1.53125 1.40625 0 2.1875-.796875.78125-.78125.78125-2.21875v-.96875q-1.15625 1.328125-3.15625 1.328125-1.96875 0-3.203125-1.59375-1.21875-1.59375-1.21875-4.34375zm1.9375.21875q0 1.90625.78125 3t2.1875 1.09375q1.828125 0 2.671875-1.65625v-5.15625q-.875-1.609375-2.65625-1.609375-1.40625 0-2.203125 1.09375-.78125 1.09375-.78125 3.234375zm15.168945 5.71875q-2.296875 0-3.734375-1.5t-1.4375-4.03125v-.34375q0-1.6875.640625-3t1.78125-2.046875q1.15625-.75 2.5-.75 2.203125 0 3.421875 1.453125 1.21875 1.4375 1.21875 4.125v.8125h-7.640625q.046875 1.65625.96875 2.6875.9375 1.03125 2.375 1.03125 1.03125 0 1.734375-.421875t1.234375-1.109375l1.1875.921875q-1.421875 2.171875-4.25 2.171875zm-.25-10.09375q-1.15625 0-1.953125.84375t-.984375 2.375h5.65625v-.140625q-.09375-1.46875-.796875-2.265625-.703125-.8125-1.921875-.8125z"/><path fill="none" d="M203.40683 626.9764h87.590546"/><path stroke="#000" stroke-dasharray="3.0,9.0" stroke-linecap="butt" stroke-linejoin="round" stroke-width="3" d="M203.40683 626.9764h87.590546"/><path fill="none" d="M295.41995 613.67456h152.97638v23.653503H295.41995z"/><path fill="#000" d="M307.68558 621.7157l.0625 1.25q1.234375-1.453125 3.34375-1.453125 2.359375 0 3.21875 1.796875.5625-.8125 1.453125-1.296875.90625-.5 2.125-.5 3.71875 0 3.78125 3.921875v7.546875h-1.9375v-7.4375q0-1.203125-.546875-1.796875-.546875-.609375-1.859375-.609375-1.0625 0-1.78125.640625-.703125.640625-.8125 1.71875v7.484375h-1.9375V625.5907q0-2.453125-2.40625-2.453125-1.890625 0-2.59375 1.609375v8.234375h-1.921875V621.7157h1.8125zm23.84961 11.265625q-.171875-.328125-.28125-1.1875-1.34375 1.390625-3.203125 1.390625-1.671875 0-2.734375-.9375t-1.0625-2.390625q0-1.765625 1.328125-2.734375 1.34375-.96875 3.765625-.96875h1.875v-.890625q0-1.015625-.609375-1.609375-.59375-.59375-1.765625-.59375-1.03125 0-1.734375.515625t-.703125 1.265625h-1.9375q0-.84375.59375-1.625.609375-.796875 1.625-1.25 1.03125-.453125 2.265625-.453125 1.953125 0 3.046875.96875 1.109375.96875 1.15625 2.671875v5.1875q0 1.5625.390625 2.46875v.171875h-2.015625zm-3.203125-1.46875q.90625 0 1.71875-.46875t1.171875-1.21875v-2.3125h-1.5q-3.546875 0-3.546875 2.078125 0 .90625.59375 1.421875.609375.5 1.5625.5zm13.288818-8.078125q-.4375-.0625-.953125-.0625-1.890625 0-2.5625 1.609375v8h-1.9375V621.7157h1.875l.03125 1.296875q.953125-1.5 2.6875-1.5.5625 0 .859375.140625v1.78125zm1.1128235 3.8125q0-2.625 1.21875-4.171875 1.21875-1.5625 3.234375-1.5625 2.0625 0 3.21875 1.453125l.09375-1.25h1.75v11q0 2.1875-1.296875 3.4375-1.296875 1.265625-3.484375 1.265625-1.21875 0-2.390625-.53125-1.15625-.515625-1.765625-1.421875l1-1.15625q1.234375 1.53125 3.03125 1.53125 1.40625 0 2.1875-.796875.78125-.78125.78125-2.21875v-.96875q-1.15625 1.328125-3.15625 1.328125-1.96875 0-3.203125-1.59375-1.21875-1.59375-1.21875-4.34375zm1.9375.21875q0 1.90625.78125 3t2.1875 1.09375q1.828125 0 2.671875-1.65625v-5.15625q-.875-1.609375-2.65625-1.609375-1.40625 0-2.203125 1.09375-.78125 1.09375-.78125 3.234375zm12.575226 5.515625h-1.921875V621.7157h1.921875v11.265625zm-2.078125-14.25q0-.46875.28125-.796875.296875-.328125.859375-.328125t.84375.328125q.296875.328125.296875.796875t-.296875.78125q-.28125.3125-.84375.3125t-.859375-.3125q-.28125-.3125-.28125-.78125zm6.988312 2.984375l.0625 1.40625q1.296875-1.609375 3.375-1.609375 3.578125 0 3.609375 4.015625v7.453125h-1.9375V625.5282q0-1.21875-.546875-1.796875-.546875-.59375-1.703125-.59375-.9375 0-1.65625.5-.703125.5-1.09375 1.3125v8.03125h-1.9375V621.7157h1.828125zm19.907318 11.46875q-2.296875 0-3.734375-1.5t-1.4375-4.03125v-.34375q0-1.6875.640625-3t1.78125-2.046875q1.15625-.75 2.5-.75 2.203125 0 3.421875 1.453125 1.21875 1.4375 1.21875 4.125v.8125h-7.640625q.046875 1.65625.96875 2.6875.9375 1.03125 2.375 1.03125 1.03125 0 1.734375-.421875t1.234375-1.109375l1.1875.921875q-1.421875 2.171875-4.25 2.171875zm-.25-10.09375q-1.15625 0-1.953125.84375t-.984375 2.375h5.65625v-.140625q-.09375-1.46875-.796875-2.265625-.703125-.8125-1.921875-.8125zm6.3930664 4.15625q0-2.59375 1.234375-4.15625 1.234375-1.578125 3.21875-1.578125t3.140625 1.34375v-5.875h1.921875v16h-1.765625l-.09375-1.203125q-1.15625 1.40625-3.21875 1.40625-1.96875 0-3.203125-1.59375-1.234375-1.609375-1.234375-4.1875v-.15625zm1.9375.21875q0 1.921875.78125 3.015625.796875 1.078125 2.1875 1.078125 1.84375 0 2.6875-1.65625v-5.171875q-.875-1.59375-2.65625-1.59375-1.421875 0-2.21875 1.09375-.78125 1.09375-.78125 3.234375zm10.106445-.21875q0-2.625 1.21875-4.171875 1.21875-1.5625 3.234375-1.5625 2.0625 0 3.21875 1.453125l.09375-1.25h1.75v11q0 2.1875-1.296875 3.4375-1.296875 1.265625-3.484375 1.265625-1.21875 0-2.390625-.53125-1.15625-.515625-1.765625-1.421875l1-1.15625q1.234375 1.53125 3.03125 1.53125 1.40625 0 2.1875-.796875.78125-.78125.78125-2.21875v-.96875q-1.15625 1.328125-3.15625 1.328125-1.96875 0-3.203125-1.59375-1.21875-1.59375-1.21875-4.34375zm1.9375.21875q0 1.90625.78125 3t2.1875 1.09375q1.828125 0 2.671875-1.65625v-5.15625q-.875-1.609375-2.65625-1.609375-1.40625 0-2.203125 1.09375-.78125 1.09375-.78125 3.234375zm15.168976 5.71875q-2.296875 0-3.734375-1.5t-1.4375-4.03125v-.34375q0-1.6875.640625-3t1.78125-2.046875q1.15625-.75 2.5-.75 2.203125 0 3.421875 1.453125 1.21875 1.4375 1.21875 4.125v.8125h-7.640625q.046875 1.65625.96875 2.6875.9375 1.03125 2.375 1.03125 1.03125 0 1.734375-.421875t1.234375-1.109375l1.1875.921875q-1.421875 2.171875-4.25 2.171875zm-.25-10.09375q-1.15625 0-1.953125.84375t-.984375 2.375h5.65625v-.140625q-.09375-1.46875-.796875-2.265625-.703125-.8125-1.921875-.8125z"/><path fill="none" d="M131.91077 100.862206l60.97638 18.866142"/><path stroke="#000" stroke-linecap="butt" stroke-linejoin="round" stroke-width="4" d="M131.91077 100.862206l38.04872 11.772308"/><path fill="#000" fill-rule="evenodd" stroke="#000" stroke-linecap="butt" stroke-width="4" d="M168.00662 118.946236l19.29419-.9463043-15.3884735-11.677147z"/><path fill="none" d="M122.88189 76.47638h152.97638v23.653542H122.88189z"/><path fill="#000" d="M142.8819 90.267525q0 2.59375-1.1875 4.15625t-3.1875 1.5625q-2.140625 0-3.296875-1.5l-.09375 1.296875h-1.78125v-16h1.9375v5.96875q1.15625-1.4375 3.203125-1.4375 2.0625 0 3.234375 1.546875t1.171875 4.25v.15625zm-1.921875-.21875q0-1.96875-.765625-3.03125-.765625-1.078125-2.1875-1.078125-1.90625 0-2.734375 1.765625v4.875q.875 1.78125 2.75 1.78125 1.390625 0 2.15625-1.078125.78125-1.078125.78125-3.234375zm3.8408356 0q0-1.65625.640625-2.984375.65625-1.328125 1.8125-2.03125 1.171875-.71875 2.65625-.71875 2.296875 0 3.71875 1.59375 1.421875 1.578125 1.421875 4.234375v.125q0 1.65625-.625 2.96875-.625 1.296875-1.796875 2.03125-1.171875.71875-2.703125.71875-2.28125 0-3.703125-1.59375t-1.421875-4.21875v-.125zm1.9375.21875q0 1.875.859375 3.015625.875 1.140625 2.328125 1.140625 1.46875 0 2.328125-1.15625.875-1.15625.875-3.21875 0-1.859375-.890625-3-.875-1.15625-2.328125-1.15625-1.421875 0-2.296875 1.140625-.875 1.125-.875 3.234375zm16.179321-4.03125q-.4375-.0625-.953125-.0625-1.890625 0-2.5625 1.609375v8h-1.9375V84.517525h1.875l.03125 1.296875q.953125-1.5 2.6875-1.5.5625 0 .859375.140625v1.78125zm1.0971985 3.8125q0-2.59375 1.234375-4.15625 1.234375-1.578125 3.21875-1.578125t3.140625 1.34375v-5.875h1.921875v16h-1.765625l-.09375-1.203125q-1.15625 1.40625-3.21875 1.40625-1.96875 0-3.203125-1.59375-1.234375-1.609375-1.234375-4.1875v-.15625zm1.9375.21875q0 1.921875.78125 3.015625.796875 1.078125 2.1875 1.078125 1.84375 0 2.6875-1.65625V87.53315q-.875-1.59375-2.65625-1.59375-1.421875 0-2.21875 1.09375-.78125 1.09375-.78125 3.234375zm15.24707 5.71875q-2.296875 0-3.734375-1.5t-1.4375-4.03125v-.34375q0-1.6875.640625-3t1.78125-2.046875q1.15625-.75 2.5-.75 2.203125 0 3.421875 1.453125 1.21875 1.4375 1.21875 4.125v.8125h-7.640625q.046875 1.65625.96875 2.6875.9375 1.03125 2.375 1.03125 1.03125 0 1.734375-.421875t1.234375-1.109375l1.1875.921875q-1.421875 2.171875-4.25 2.171875zm-.25-10.09375q-1.15625 0-1.953125.84375t-.984375 2.375h5.65625v-.140625q-.09375-1.46875-.796875-2.265625-.703125-.8125-1.921875-.8125zm12.314957.34375q-.4375-.0625-.953125-.0625-1.890625 0-2.5625 1.609375v8h-1.9375V84.517525h1.875l.03125 1.296875q.953125-1.5 2.6875-1.5.5625 0 .859375.140625v1.78125zm5.7794952 3.890625h-5.078125v-1.578125h5.078125V90.1269zm7.3214874-3.890625q-.4375-.0625-.953125-.0625-1.890625 0-2.5625 1.609375v8h-1.9375V84.517525h1.875l.03125 1.296875q.953125-1.5 2.6875-1.5.5625 0 .859375.140625v1.78125zm8.3159485 9.546875q-.171875-.328125-.28125-1.1875-1.34375 1.390625-3.203125 1.390625-1.671875 0-2.734375-.9375t-1.0625-2.390625q0-1.765625 1.328125-2.734375 1.34375-.96875 3.765625-.96875h1.875V88.0644q0-1.015625-.609375-1.609375-.59375-.59375-1.765625-.59375-1.03125 0-1.734375.515625t-.703125 1.265625h-1.9375q0-.84375.59375-1.625.609375-.796875 1.625-1.25 1.03125-.453125 2.265625-.453125 1.953125 0 3.046875.96875 1.109375.96875 1.15625 2.671875v5.1875q0 1.5625.390625 2.46875v.171875h-2.015625zm-3.203125-1.46875q.90625 0 1.71875-.46875t1.171875-1.21875v-2.3125h-1.5q-3.546875 0-3.546875 2.078125 0 .90625.59375 1.421875.609375.5 1.5625.5zm7.3669586-4.265625q0-2.59375 1.234375-4.15625 1.234375-1.578125 3.21875-1.578125t3.140625 1.34375v-5.875h1.921875v16h-1.765625l-.09375-1.203125q-1.15625 1.40625-3.21875 1.40625-1.96875 0-3.203125-1.59375-1.234375-1.609375-1.234375-4.1875v-.15625zm1.9375.21875q0 1.921875.78125 3.015625.796875 1.078125 2.1875 1.078125 1.84375 0 2.6875-1.65625V87.53315q-.875-1.59375-2.65625-1.59375-1.421875 0-2.21875 1.09375-.78125 1.09375-.78125 3.234375zm12.65332 5.515625h-1.921875V84.517525h1.921875V95.78315zm-2.078125-14.25q0-.46875.28125-.796875.296875-.328125.859375-.328125t.84375.328125q.296875.328125.296875.796875t-.296875.78125q-.28125.3125-.84375.3125t-.859375-.3125q-.28125-.3125-.28125-.78125zm12.128952 13.140625q-1.125 1.3125-3.3125 1.3125-1.796875 0-2.75-1.046875-.9375-1.046875-.9375-3.09375v-7.328125h1.921875v7.28125q0 2.5625 2.078125 2.5625 2.21875 0 2.9375-1.65625v-8.1875h1.9375V95.78315h-1.84375l-.03125-1.109375zm11.351303-1.875q0-.78125-.59375-1.21875-.578125-.4375-2.046875-.75-1.453125-.3125-2.3125-.75t-1.28125-1.03125q-.40625-.609375-.40625-1.4375 0-1.390625 1.171875-2.34375t3-.953125q1.90625 0 3.09375.984375 1.2031097.984375 1.2031097 2.53125h-1.9374847q0-.796875-.671875-1.359375-.671875-.578125-1.6875-.578125-1.0625 0-1.65625.453125t-.59375 1.203125q0 .6875.546875 1.046875.5625.359375 2 .6875 1.453125.3125 2.34375.765625.890625.4375 1.3281097 1.078125.4375.625.4375 1.53125 0 1.515625-1.2187347 2.421875-1.203125.90625-3.125.90625-1.359375 0-2.40625-.46875-1.03125-.484375-1.625-1.34375t-.59375-1.859375h1.9375q.046875.96875.765625 1.546875.734375.5625 1.921875.5625 1.09375 0 1.75-.4375.65625-.453125.65625-1.1875z"/><path fill="none" d="M400.1811 113.7664h168.50397v46.04724H400.1811z"/><path fill="#000" d="M454.3784 145.20515q0 3.9375-1.765625 6.265625-1.75 2.328125-4.828125 2.328125-2.96875 0-4.625-2.140625l-.1875 1.828125h-3.4375v-24h3.796875v8.71875q1.640625-1.9375 4.421875-1.9375 3.09375 0 4.859375 2.296875t1.765625 6.421875v.21875zm-3.796875-.328125q0-2.75-.96875-4.125t-2.8125-1.375q-2.46875 0-3.46875 2.15625v6.96875q1.015625 2.203125 3.5 2.203125 1.78125 0 2.75-1.328125t1-4.015625v-.484375zm6.265625 0q0-2.484375.984375-4.46875.984375-2 2.765625-3.0625 1.78125-1.078125 4.09375-1.078125 3.421875 0 5.546875 2.203125 2.140625 2.203125 2.3125 5.84375l.015625.890625q0 2.5-.96875 4.46875-.953125 1.96875-2.75 3.046875-1.78125 1.078125-4.125 1.078125-3.578125 0-5.734375-2.375-2.140625-2.390625-2.140625-6.359375v-.1875zm3.796875.328125q0 2.609375 1.078125 4.09375 1.078125 1.46875 3 1.46875t2.984375-1.5q1.078125-1.5 1.078125-4.390625 0-2.5625-1.109375-4.0625-1.09375-1.5-2.984375-1.5-1.859375 0-2.953125 1.484375-1.09375 1.46875-1.09375 4.40625zm23.984375-5.15625q-.75-.125-1.546875-.125-2.609375 0-3.515625 2v11.5625h-3.796875v-16.90625h3.625l.09375 1.890625q1.375-2.203125 3.8125-2.203125.8125 0 1.34375.21875l-.015625 3.5625zm1.390625 4.859375q0-3.90625 1.8125-6.265625 1.8125-2.375 4.859375-2.375 2.6875 0 4.34375 1.875v-8.65625h3.796875v24h-3.4375l-.1875-1.75q-1.703125 2.0625-4.546875 2.0625-2.96875 0-4.8125-2.390625-1.828125-2.390625-1.828125-6.5zm3.796875.328125q0 2.578125.984375 4.03125 1 1.4375 2.828125 1.4375 2.328125 0 3.40625-2.078125v-7.21875q-1.046875-2.03125-3.375-2.03125-1.84375 0-2.84375 1.46875-1 1.453125-1 4.390625zm22.421844 8.5625q-3.6093445 0-5.8593445-2.265625-2.234375-2.28125-2.234375-6.0625v-.46875q0-2.53125.96875-4.515625.984375-2 2.75-3.109375t3.9375-1.109375q3.4530945 0 5.3280945 2.203125 1.890625 2.203125 1.890625 6.234375v1.53125h-11.0468445q.171875 2.09375 1.390625 3.3125 1.234375 1.21875 3.0937195 1.21875 2.609375 0 4.25-2.109375l2.046875 1.953125q-1.015625 1.515625-2.71875 2.359375-1.6875.828125-3.796875.828125zm-.45309448-14.484375q-1.5625 0-2.53125 1.09375-.953125 1.09375-1.21875 3.046875h7.2343445v-.28125q-.125-1.90625-1.015625-2.875-.890625-.984375-2.4687195-.984375zm19.03122.734375q-.75-.125-1.546875-.125-2.609375 0-3.515625 2v11.5625h-3.796875v-16.90625h3.625l.09375 1.890625q1.375-2.203125 3.8125-2.203125.8125 0 1.34375.21875l-.015625 3.5625z"/><path fill="none" d="M790.9895 647.8635h152.97638v55.968506H790.9895z"/><path fill="#434343" d="M857.6366 670.5804q-.25 2.09375-1.5625 3.25-1.296875 1.140625-3.46875 1.140625-2.34375 0-3.765625-1.6875t-1.421875-4.515625v-1.265625q0-1.859375.65625-3.25.671875-1.40625 1.875-2.15625 1.21875-.765625 2.8125-.765625 2.109375 0 3.390625 1.1875 1.28125 1.171875 1.484375 3.265625h-1.765625q-.21875-1.578125-.984375-2.28125-.765625-.71875-2.125-.71875-1.671875 0-2.625 1.234375t-.953125 3.53125v1.28125q0 2.15625.890625 3.4375.90625 1.265625 2.53125 1.265625 1.453125 0 2.234375-.65625t1.03125-2.296875h1.765625zm6.8929443-4.140625q-.390625-.0625-.84375-.0625-1.65625 0-2.25 1.40625v7h-1.671875v-9.859375h1.640625l.015625 1.140625q.828125-1.3125 2.359375-1.3125.484375 0 .75.125v1.5625zm5.4522095 8.53125q-2 0-3.265625-1.3125-1.25-1.328125-1.25-3.53125v-.3125q0-1.46875.5625-2.609375.5625-1.15625 1.5625-1.796875 1.015625-.65625 2.1875-.65625 1.921875 0 2.984375 1.265625t1.0625 3.625v.6875h-6.671875q.03125 1.46875.84375 2.375.828125.890625 2.078125.890625.890625 0 1.515625-.359375.625-.375 1.078125-.96875l1.03125.796875q-1.234375 1.90625-3.71875 1.90625zm-.203125-8.84375q-1.015625 0-1.71875.75-.6875.734375-.84375 2.078125h4.9375v-.125q-.078125-1.28125-.703125-1.984375-.609375-.71875-1.671875-.71875zm12.086975 8.65625q-.140625-.296875-.234375-1.03125-1.171875 1.21875-2.8125 1.21875-1.453125 0-2.390625-.828125-.921875-.828125-.921875-2.09375 0-1.53125 1.15625-2.375 1.171875-.859375 3.296875-.859375h1.640625v-.78125q0-.890625-.53125-1.40625-.515625-.53125-1.546875-.53125-.90625 0-1.515625.46875-.609375.453125-.609375 1.09375h-1.703125q0-.734375.515625-1.421875.53125-.6875 1.421875-1.078125.90625-.40625 1.984375-.40625 1.703125 0 2.671875.859375.96875.84375 1 2.328125v4.53125q0 1.359375.34375 2.171875v.140625h-1.765625zm-2.796875-1.28125q.796875 0 1.5-.40625.71875-.421875 1.03125-1.078125v-2.015625h-1.3125q-3.109375 0-3.109375 1.8125 0 .796875.53125 1.25.53125.4375 1.359375.4375zm9.147949-10.96875v2.390625h1.84375v1.3125h-1.84375v6.109375q0 .59375.234375.890625.25.296875.84375.296875.296875 0 .8125-.109375v1.359375q-.671875.1875-1.296875.1875-1.125 0-1.703125-.6875t-.578125-1.9375v-6.109375h-1.796875v-1.3125h1.796875v-2.390625h1.6875zm7.8911133 12.4375q-2 0-3.265625-1.3125-1.25-1.328125-1.25-3.53125v-.3125q0-1.46875.5625-2.609375.5625-1.15625 1.5625-1.796875 1.015625-.65625 2.1875-.65625 1.921875 0 2.984375 1.265625t1.0625 3.625v.6875h-6.671875q.03125 1.46875.84375 2.375.828125.890625 2.078125.890625.890625 0 1.515625-.359375.625-.375 1.078125-.96875l1.03125.796875q-1.234375 1.90625-3.71875 1.90625zm-.203125-8.84375q-1.015625 0-1.71875.75-.6875.734375-.84375 2.078125h4.9375v-.125q-.078125-1.28125-.703125-1.984375-.609375-.71875-1.671875-.71875zm5.586975 3.640625q0-2.265625 1.078125-3.640625t2.8125-1.375q1.734375 0 2.75 1.171875v-5.140625h1.6875v14h-1.546875l-.09375-1.0625q-1 1.25-2.8125 1.25-1.703125 0-2.796875-1.40625-1.078125-1.40625-1.078125-3.65625v-.140625zm1.6875.203125q0 1.671875.6875 2.625.703125.9375 1.921875.9375 1.609375 0 2.34375-1.4375v-4.53125q-.765625-1.390625-2.328125-1.390625-1.234375 0-1.9375.953125-.6875.953125-.6875 2.84375zm22.218079 0q0 2.25-1.046875 3.625-1.03125 1.375-2.78125 1.375-1.875 0-2.890625-1.328125l-.078125 1.140625h-1.546875v-14h1.671875v5.234375q1.03125-1.265625 2.8125-1.265625 1.796875 0 2.828125 1.359375 1.03125 1.34375 1.03125 3.703125v.15625zm-1.6875-.203125q0-1.71875-.671875-2.65625-.65625-.9375-1.90625-.9375-1.671875 0-2.40625 1.546875v4.265625q.78125 1.546875 2.421875 1.546875 1.21875 0 1.890625-.9375t.671875-2.828125zm6.929077 2.546875l2.296875-7.390625h1.796875l-3.953125 11.375q-.921875 2.46875-2.921875 2.46875l-.328125-.03125-.625-.125v-1.359375l.453125.03125q.859375 0 1.328125-.34375.484375-.34375.796875-1.265625l.375-1-3.515625-9.75h1.84375l2.453125 7.390625z"/><path fill="none" d="M808.7447 679.47546h126.22119v21.862793H808.7447V679.47546z"/><path fill="#009" d="M824.5728 692.2054q-.109375 2.203125-1.09375 3.484375t-2.625 1.28125q-1.703125 0-2.1875-1.53125-.5.765625-1.140625 1.15625-.625.375-1.296875.375-1.296875 0-1.96875-1.0625-.65625-1.0625-.484375-2.921875.140625-1.5.6875-2.671875.5625-1.1875 1.421875-1.859375.875-.6875 1.828125-.6875.734375 0 1.3125.203125.59375.1875 1.328125.765625l-.484375 5.046875q-.171875 2.109375 1.171875 2.109375 1.03125 0 1.671875-1.015625.640625-1.03125.6875-2.671875.171875-3.53125-1.328125-5.390625-1.484375-1.859375-4.515625-1.859375-1.828125 0-3.25.90625t-2.25 2.625q-.8125 1.703125-.921875 3.9375-.109375 2.265625.546875 3.9375.65625 1.65625 2 2.53125t3.25.875q.828125 0 1.640625-.203125.828125-.1875 1.375-.515625l.34375 1.046875q-.5625.359375-1.5.578125-.9375.234375-1.890625.234375-2.28125 0-3.921875-1.03125-1.640625-1.015625-2.453125-2.953125-.8125-1.921875-.703125-4.5.109375-2.5 1.109375-4.5 1.015625-2 2.75-3.078125 1.734375-1.09375 3.90625-1.09375 2.265625 0 3.890625 1.015625t2.40625 2.9375q.796875 1.921875.6875 4.5zm-9.34375.78125q-.125 1.296875.234375 1.984375.375.6875 1.171875.6875.546875 0 1.046875-.453125.515625-.46875.84375-1.34375l.015625-.078125.421875-4.578125q-.515625-.265625-1.09375-.265625-1.078125 0-1.78125 1.09375-.6875 1.078125-.859375 2.953125zm13.12738-6.0625l.046875 1.09375q1.078125-1.265625 2.921875-1.265625 2.0625 0 2.8125 1.578125.5-.71875 1.28125-1.140625.796875-.4375 1.859375-.4375 3.25 0 3.296875 3.421875v6.609375h-1.671875v-6.5q0-1.0625-.484375-1.578125-.484375-.53125-1.625-.53125-.9375 0-1.5625.5625-.609375.5625-.71875 1.5v6.546875h-1.6875V690.3304q0-2.15625-2.109375-2.15625-1.65625 0-2.265625 1.40625v7.203125h-1.6875v-9.859375h1.59375zm23.117126 5.046875q0 2.25-1.046875 3.625-1.03125 1.375-2.78125 1.375-1.875 0-2.890625-1.328125l-.078125 1.140625h-1.546875v-14h1.671875v5.234375q1.03125-1.265625 2.8125-1.265625 1.796875 0 2.828125 1.359375 1.03125 1.34375 1.03125 3.703125v.15625zm-1.6875-.203125q0-1.71875-.671875-2.65625-.65625-.9375-1.90625-.9375-1.671875 0-2.40625 1.546875v4.265625q.78125 1.546875 2.421875 1.546875 1.21875 0 1.890625-.9375t.671875-2.828125zm5.638733 5.015625h-1.6875v-14h1.6875v14zm6.777405.1875q-2 0-3.265625-1.3125-1.25-1.328125-1.25-3.53125v-.3125q0-1.46875.5625-2.609375.5625-1.15625 1.5625-1.796875 1.015625-.65625 2.1875-.65625 1.921875 0 2.984375 1.265625t1.0625 3.625v.6875h-6.671875q.03125 1.46875.84375 2.375.828125.890625 2.078125.890625.890625 0 1.515625-.359375.625-.375 1.078125-.96875l1.03125.796875q-1.234375 1.90625-3.71875 1.90625zm-.203125-8.84375q-1.015625 0-1.71875.75-.6875.734375-.84375 2.078125h4.9375v-.125q-.078125-1.28125-.703125-1.984375-.609375-.71875-1.671875-.71875zm5.586914 3.640625q0-2.265625 1.078125-3.640625t2.8125-1.375q1.734375 0 2.75 1.171875v-5.140625h1.6875v14h-1.546875l-.09375-1.0625q-1 1.25-2.8125 1.25-1.703125 0-2.796875-1.40625-1.078125-1.40625-1.078125-3.65625v-.140625zm1.6875.203125q0 1.671875.6875 2.625.703125.9375 1.921875.9375 1.609375 0 2.34375-1.4375v-4.53125q-.765625-1.390625-2.328125-1.390625-1.234375 0-1.9375.953125-.6875.953125-.6875 2.84375zm12.005859.25l-1.0625 1.09375v3.46875h-1.6875v-14h1.6875v8.46875l.90625-1.078125 3.0625-3.25h2.046875l-3.828125 4.125 4.28125 5.734375h-1.984375l-3.421875-4.5625zm6.2525024-.453125q0-1.453125.5625-2.609375.578125-1.15625 1.59375-1.78125t2.3125-.625q2.015625 0 3.25 1.390625 1.25 1.390625 1.25 3.703125v.125q0 1.4375-.546875 2.578125t-1.578125 1.78125q-1.015625.640625-2.359375.640625-2 0-3.25-1.390625-1.234375-1.40625-1.234375-3.703125v-.109375zm1.6875.203125q0 1.640625.765625 2.640625.765625.984375 2.03125.984375 1.296875 0 2.046875-1 .75-1.015625.75-2.828125 0-1.625-.765625-2.625-.765625-1.015625-2.046875-1.015625-1.25 0-2.015625 1-.765625.984375-.765625 2.84375zm18.124268 2.484375l1.890625-7.53125h1.6875l-2.859375 9.859375h-1.375l-2.390625-7.46875-2.328125 7.46875h-1.375l-2.859375-9.859375h1.671875l1.953125 7.375 2.28125-7.375h1.359375l2.34375 7.53125zm11.035156-.28125q0-.6875-.515625-1.0625t-1.796875-.640625q-1.28125-.28125-2.03125-.65625-.75-.390625-1.109375-.921875t-.359375-1.265625q0-1.203125 1.015625-2.03125 1.03125-.84375 2.625-.84375 1.671875 0 2.71875.859375t1.046875 2.21875h-1.6875q0-.703125-.59375-1.203125t-1.484375-.5q-.921875 0-1.4375.40625-.515625.390625-.515625 1.046875 0 .609375.484375.921875t1.734375.59375q1.265625.28125 2.046875.671875t1.15625.9375q.390625.546875.390625 1.34375 0 1.328125-1.0625 2.125-1.046875.796875-2.734375.796875-1.1875 0-2.109375-.421875-.90625-.421875-1.421875-1.171875t-.515625-1.625h1.6875q.046875.84375.671875 1.34375.640625.5 1.6875.5.953125 0 1.53125-.390625t.578125-1.03125zm6.635254-1.953125l-1.0625 1.09375v3.46875h-1.6875v-14h1.6875v8.46875l.90625-1.078125 3.0625-3.25h2.046875l-3.828125 4.125 4.28125 5.734375h-1.984375l-3.421875-4.5625zm8.533813 4.5625h-1.6875v-9.859375h1.6875v9.859375zm-1.828125-12.46875q0-.40625.25-.6875.25-.296875.734375-.296875.5 0 .75.296875.265625.28125.265625.6875t-.265625.6875q-.25.265625-.75.265625-.484375 0-.734375-.265625-.25-.28125-.25-.6875z"/><path fill="none" d="M934.9659 679.47546v21.862793-21.862793z"/><path fill="#009" d="M808.7447 697.9968h126.22119v1.6799927H808.7447V697.9968z"/><a target="_blank" xlink:href="https://github.com/mbledkowski"><path fill="none" d="M808.7447 678.8635h126.22119v22.399963H808.7447V678.8635z"/></a></g></svg>
